<?xml version="1.0" standalone="no"?><!DOCTYPE svg PUBLIC "-//W3C//DTD SVG 1.1//EN" "http://www.w3.org/Graphics/SVG/1.1/DTD/svg11.dtd"><svg t="1525254866133" class="icon" style="" viewBox="0 0 1024 1024" version="1.1" xmlns="http://www.w3.org/2000/svg" p-id="9224" xmlns:xlink="http://www.w3.org/1999/xlink" width="20" height="20"><defs><style type="text/css"></style></defs><path d="M722.152727 630.458182c-6.749091 6.376727-15.36 9.541818-23.970909 9.541818-9.262545 0-18.501818-3.653818-25.367273-10.938182l-152.040727-160.768-170.938182 162.117818a34.909091 34.909091 0 0 1-48.034909-50.641454l196.282182-186.181818a33.326545 33.326545 0 0 1 24.971636-9.565091c9.262545 0.256 18.059636 4.165818 24.413091 10.914909l176.081455 186.181818a34.885818 34.885818 0 0 1-1.396364 49.338182M512 23.272727C242.082909 23.272727 23.272727 242.082909 23.272727 512s218.810182 488.727273 488.727273 488.727273c269.893818 0 488.727273-218.810182 488.727273-488.727273S781.893818 23.272727 512 23.272727" fill="#ffffff" p-id="9225"></path></svg>