<?xml version="1.0" encoding="utf-8"?>
<!-- Generator: Adobe Illustrator 16.0.0, SVG Export Plug-In . SVG Version: 6.00 Build 0)  -->
<!DOCTYPE svg PUBLIC "-//W3C//DTD SVG 1.1//EN" "http://www.w3.org/Graphics/SVG/1.1/DTD/svg11.dtd">
<svg version="1.1" id="图层_3" xmlns="http://www.w3.org/2000/svg" xmlns:xlink="http://www.w3.org/1999/xlink" x="0px" y="0px"
	 width="35px" height="24.35px" viewBox="0 0 35 24.35" enable-background="new 0 0 35 24.35" xml:space="preserve">
<g>
	<polygon fill="#B0A4B3" points="7.472,14.434 12.283,17.453 14.743,17.453 8.201,13.767 	"/>
	
		<linearGradient id="SVGID_1_" gradientUnits="userSpaceOnUse" x1="-937.3613" y1="2.3936" x2="-930.4739" y2="14.2902" gradientTransform="matrix(-1 0 0 1 -920.2637 0)">
		<stop  offset="0" style="stop-color:#C4BBC6"/>
		<stop  offset="0.4524" style="stop-color:#B0A4B3"/>
		<stop  offset="1" style="stop-color:#A497A9"/>
	</linearGradient>
	<path fill="url(#SVGID_1_)" d="M3.823,7.028L3.804,7.007L2.659,5.779C2.652,4.918,2.944,3.842,3.531,2.786
		c0.587-1.056,1.348-1.872,2.082-2.32l1.648,0.325l0.027,0.005l7.624,0.566l8.116,4.514l2.365,4.555
		c-0.098,0.896-3.124,6.337-3.833,6.894l-5.117,0.394l-8.117-4.513L3.823,7.028z"/>
	
		<linearGradient id="SVGID_2_" gradientUnits="userSpaceOnUse" x1="-936.6748" y1="3.188" x2="-931.1062" y2="13.5872" gradientTransform="matrix(-1 0 0 1 -920.2637 0)">
		<stop  offset="0.006" style="stop-color:#DFDAE1"/>
		<stop  offset="0.2024" style="stop-color:#DDD8DF"/>
		<stop  offset="0.3119" style="stop-color:#D6CFD7"/>
		<stop  offset="0.4001" style="stop-color:#C9C1CC"/>
		<stop  offset="0.4764" style="stop-color:#B8ADBB"/>
		<stop  offset="0.506" style="stop-color:#B0A4B3"/>
		<stop  offset="0.721" style="stop-color:#A497A9"/>
		<stop  offset="1" style="stop-color:#908298"/>
	</linearGradient>
	<path fill="url(#SVGID_2_)" d="M3.565,2.729L3.565,2.729c0.52-0.911,1.206-1.603,1.886-1.972l1.621,0.375l0.027,0.006l7.453,0.874
		l8.116,4.513l2.518,4.283c-0.027,0.402-0.696,1.784-1.447,3.138c-0.754,1.353-1.575,2.65-1.902,2.884l-4.967,0.123L8.752,12.44
		L4.077,6.57L4.059,6.55L2.885,5.372C2.84,4.599,3.065,3.65,3.565,2.729z"/>
	
		<linearGradient id="SVGID_3_" gradientUnits="userSpaceOnUse" x1="-604.4736" y1="523.791" x2="-598.2529" y2="523.791" gradientTransform="matrix(-0.486 0.874 0.874 0.486 -735.3713 277.5068)">
		<stop  offset="0.006" style="stop-color:#FFFFFF"/>
		<stop  offset="0.1396" style="stop-color:#F4F3F5"/>
		<stop  offset="0.3872" style="stop-color:#D5CED6"/>
		<stop  offset="0.6429" style="stop-color:#B0A4B3"/>
		<stop  offset="0.7479" style="stop-color:#AC9FB0"/>
		<stop  offset="0.8628" style="stop-color:#A093A5"/>
		<stop  offset="0.9821" style="stop-color:#8D7E95"/>
		<stop  offset="1" style="stop-color:#897B92"/>
	</linearGradient>
	<path fill="url(#SVGID_3_)" d="M7.165,1.203l0.027,0.005l7.032,1.453l8.014,4.456l2.369,4.439
		c-0.028,0.405-0.712,1.813-1.472,3.179c0.673-1.211,1.271-2.464,1.279-2.833l-2.817-3.634l-8.014-4.457L7.017,1.521L6.99,1.515
		L5.264,1.374C4.612,1.684,3.968,2.298,3.507,3.126c0.519-0.934,1.217-1.644,1.904-2.02L7.165,1.203z"/>
	
		<linearGradient id="SVGID_4_" gradientUnits="userSpaceOnUse" x1="-934.6611" y1="1.5024" x2="-928.3889" y2="12.7388" gradientTransform="matrix(-1 0 0 1 -920.2637 0)">
		<stop  offset="0" style="stop-color:#CFC8D1"/>
		<stop  offset="0.244" style="stop-color:#280F24"/>
		<stop  offset="0.2844" style="stop-color:#280F24"/>
		<stop  offset="0.5298" style="stop-color:#280F24"/>
		<stop  offset="0.5538" style="stop-color:#432A3B"/>
		<stop  offset="0.5808" style="stop-color:#5D4454"/>
		<stop  offset="0.6114" style="stop-color:#745E6D"/>
		<stop  offset="0.6459" style="stop-color:#897685"/>
		<stop  offset="0.6862" style="stop-color:#9A8A99"/>
		<stop  offset="0.736" style="stop-color:#A799A8"/>
		<stop  offset="0.8059" style="stop-color:#AEA1B1"/>
		<stop  offset="1" style="stop-color:#B0A4B3"/>
	</linearGradient>
	<path fill="url(#SVGID_4_)" d="M8.394,12.819c0.556-2.441,4.301-9.242,6.217-11.177C12.288,4.992,10.063,9.068,8.394,12.819z"/>
	<path fill="#9E90A3" d="M4.171,7.512c0.125-1.474,2.218-5.297,3.49-6.274C6.25,3.058,5.011,5.352,4.171,7.512z"/>
	
		<linearGradient id="SVGID_5_" gradientUnits="userSpaceOnUse" x1="-943.4126" y1="5.9956" x2="-936.7708" y2="17.8928" gradientTransform="matrix(-1 0 0 1 -920.2637 0)">
		<stop  offset="0" style="stop-color:#CFC8D1"/>
		<stop  offset="0.244" style="stop-color:#280F24"/>
		<stop  offset="0.2844" style="stop-color:#280F24"/>
		<stop  offset="0.5298" style="stop-color:#280F24"/>
		<stop  offset="0.5538" style="stop-color:#432A3B"/>
		<stop  offset="0.5808" style="stop-color:#5D4454"/>
		<stop  offset="0.6114" style="stop-color:#745E6D"/>
		<stop  offset="0.6459" style="stop-color:#897685"/>
		<stop  offset="0.6862" style="stop-color:#9A8A99"/>
		<stop  offset="0.736" style="stop-color:#A799A8"/>
		<stop  offset="0.8059" style="stop-color:#AEA1B1"/>
		<stop  offset="1" style="stop-color:#B0A4B3"/>
	</linearGradient>
	<path fill="url(#SVGID_5_)" d="M22.97,5.843c0.019,0.01,0.041,0.022,0.059,0.033c-0.697,2.313-4.771,9.629-6.585,11.842
		c-0.022-0.013-0.048-0.026-0.071-0.04C18.694,14.063,21.172,9.621,22.97,5.843z"/>
	<polygon points="5.848,21.34 29.911,21.34 33.737,17.691 5.341,17.691 	"/>
	<rect x="1.119" y="6.677" fill="#B0A4B3" width="3.896" height="2.885"/>
	<g>
		<path fill="#055E43" d="M27.658,19.427c-0.96,0-1.74,0.724-1.74,1.616c0-0.961,0.78-1.74,1.74-1.74
			c0.962,0,1.741,0.779,1.741,1.74C29.399,20.151,28.62,19.427,27.658,19.427z"/>
		<circle fill="#030414" cx="27.659" cy="21.043" r="2.767"/>
		
			<radialGradient id="SVGID_6_" cx="-947.9199" cy="21.043" r="2.9919" gradientTransform="matrix(-1 0 0 1 -920.2637 0)" gradientUnits="userSpaceOnUse">
			<stop  offset="0.006" style="stop-color:#141213"/>
			<stop  offset="0.3164" style="stop-color:#131011"/>
			<stop  offset="0.4281" style="stop-color:#0D0C0C"/>
			<stop  offset="0.5076" style="stop-color:#060202"/>
			<stop  offset="0.5238" style="stop-color:#040000"/>
			<stop  offset="0.619" style="stop-color:#040000"/>
			<stop  offset="0.6914" style="stop-color:#22221C"/>
			<stop  offset="0.7564" style="stop-color:#3D392D"/>
			<stop  offset="0.7917" style="stop-color:#474334"/>
			<stop  offset="0.8457" style="stop-color:#514B3C"/>
			<stop  offset="0.8988" style="stop-color:#554F3F"/>
			<stop  offset="0.9172" style="stop-color:#514A3C"/>
			<stop  offset="0.9396" style="stop-color:#433E33"/>
			<stop  offset="0.964" style="stop-color:#2E2A25"/>
			<stop  offset="0.9897" style="stop-color:#131012"/>
			<stop  offset="1" style="stop-color:#070206"/>
		</radialGradient>
		<path fill="url(#SVGID_6_)" d="M24.665,21.043c0-0.086,0.006-0.171,0.014-0.256l0.528-0.02l-0.51-0.135
			c0.023-0.164,0.055-0.325,0.104-0.479l0.521,0.094l-0.468-0.242c0.058-0.154,0.126-0.304,0.207-0.445l0.487,0.204l-0.406-0.337
			c0.09-0.138,0.189-0.267,0.3-0.389l0.431,0.303l-0.324-0.418c0.115-0.116,0.242-0.22,0.376-0.315l0.355,0.389l-0.227-0.476
			c0.139-0.087,0.282-0.166,0.434-0.231l0.266,0.459l-0.118-0.514c0.152-0.055,0.31-0.1,0.473-0.131l0.16,0.503l-0.005-0.527
			c0.13-0.018,0.261-0.029,0.396-0.029c0.031,0,0.063,0.003,0.095,0.005l0.048,0.524l0.107-0.516
			c0.166,0.014,0.328,0.042,0.484,0.082l-0.065,0.523l0.218-0.484c0.157,0.049,0.309,0.113,0.454,0.186l-0.177,0.497l0.314-0.423
			c0.143,0.082,0.279,0.173,0.407,0.276l-0.281,0.449l0.397-0.346c0.122,0.11,0.235,0.229,0.338,0.356l-0.369,0.377l0.463-0.251
			c0.095,0.132,0.179,0.273,0.252,0.421l-0.442,0.289l0.51-0.147c0.063,0.149,0.112,0.306,0.152,0.466l-0.492,0.187l0.527-0.035
			c0.029,0.159,0.046,0.322,0.049,0.489l-0.521,0.076l0.521,0.08c-0.004,0.167-0.021,0.33-0.052,0.488l-0.529-0.038l0.493,0.19
			c-0.041,0.161-0.092,0.316-0.156,0.464l-0.508-0.15l0.439,0.292c-0.074,0.147-0.158,0.287-0.254,0.419l-0.463-0.255l0.368,0.38
			c-0.104,0.127-0.218,0.245-0.341,0.354L29.25,22.93l0.276,0.45c-0.127,0.103-0.264,0.194-0.407,0.274l-0.313-0.426l0.173,0.498
			c-0.146,0.072-0.297,0.134-0.455,0.182l-0.215-0.484l0.063,0.524c-0.157,0.039-0.318,0.065-0.484,0.078l-0.104-0.517l-0.053,0.524
			c-0.024,0-0.048,0.003-0.073,0.003c-0.142,0-0.279-0.013-0.416-0.032l0.009-0.527l-0.165,0.503
			c-0.161-0.031-0.319-0.078-0.472-0.134l0.123-0.513l-0.269,0.456c-0.151-0.065-0.295-0.144-0.433-0.232l0.23-0.475l-0.359,0.386
			c-0.132-0.097-0.259-0.202-0.374-0.318l0.328-0.416l-0.433,0.3c-0.109-0.122-0.208-0.252-0.297-0.391l0.407-0.334l-0.489,0.2
			c-0.078-0.142-0.146-0.292-0.202-0.447l0.47-0.239l-0.522,0.091c-0.047-0.155-0.08-0.316-0.102-0.48l0.511-0.132l-0.526-0.023
			C24.671,21.2,24.665,21.123,24.665,21.043z"/>
		<ellipse fill="#B0A4B3" cx="27.659" cy="21.043" rx="1.741" ry="1.616"/>
		<path fill="#EDEBEE" d="M27.658,22.659c0.962,0,1.741-0.723,1.741-1.615c0,0.961-0.779,1.74-1.741,1.74
			c-0.96,0-1.74-0.779-1.74-1.74C25.918,21.936,26.698,22.659,27.658,22.659z"/>
		<ellipse fill="#055E43" cx="27.658" cy="21.083" rx="1.079" ry="1.119"/>
		<circle fill="#EDEBEE" cx="27.658" cy="21.043" r="1.079"/>
		
			<radialGradient id="SVGID_7_" cx="-947.9258" cy="23.8555" r="4.3818" gradientTransform="matrix(-1 0 0 0.9857 -920.2637 -0.4424)" gradientUnits="userSpaceOnUse">
			<stop  offset="0" style="stop-color:#BBB0BE"/>
			<stop  offset="0.2713" style="stop-color:#B9AFBC"/>
			<stop  offset="0.3689" style="stop-color:#B3A8B7"/>
			<stop  offset="0.3988" style="stop-color:#B0A4B3"/>
			<stop  offset="0.4191" style="stop-color:#ABA1AE"/>
			<stop  offset="0.4465" style="stop-color:#9D98A0"/>
			<stop  offset="0.478" style="stop-color:#868B8A"/>
			<stop  offset="0.5125" style="stop-color:#65796D"/>
			<stop  offset="0.5491" style="stop-color:#34674E"/>
			<stop  offset="0.5595" style="stop-color:#206247"/>
			<stop  offset="1" style="stop-color:#516F44"/>
		</radialGradient>
		<ellipse fill="url(#SVGID_7_)" cx="27.658" cy="21.014" rx="1.079" ry="1.05"/>
		
			<linearGradient id="SVGID_8_" gradientUnits="userSpaceOnUse" x1="-947.9214" y1="21.1865" x2="-947.9214" y2="19.8105" gradientTransform="matrix(-1 0 0 1 -920.2637 0)">
			<stop  offset="0.006" style="stop-color:#4B7258"/>
			<stop  offset="0.1049" style="stop-color:#456F51"/>
			<stop  offset="0.4906" style="stop-color:#31623C"/>
			<stop  offset="0.8026" style="stop-color:#235B32"/>
			<stop  offset="1" style="stop-color:#1D592E"/>
		</linearGradient>
		<path fill="url(#SVGID_8_)" d="M27.658,20.088c-0.573,0-1.043,0.438-1.075,0.988c-0.002-0.021-0.004-0.042-0.004-0.062
			c0-0.581,0.483-1.05,1.079-1.05c0.597,0,1.079,0.469,1.079,1.05c0,0.021-0.001,0.041-0.003,0.062
			C28.701,20.525,28.232,20.088,27.658,20.088z"/>
		<circle fill="#055E43" cx="27.658" cy="21.138" r="0.445"/>
		<circle fill="#B0A4B3" cx="27.658" cy="21.043" r="0.445"/>
		
			<linearGradient id="SVGID_9_" gradientUnits="userSpaceOnUse" x1="-947.9229" y1="20.6235" x2="-947.9229" y2="21.4639" gradientTransform="matrix(-1 0 0 1 -920.2637 0)">
			<stop  offset="0" style="stop-color:#FFFFFF"/>
			<stop  offset="0.1701" style="stop-color:#FDFDFE"/>
			<stop  offset="0.2695" style="stop-color:#F6F5F7"/>
			<stop  offset="0.3507" style="stop-color:#E9E6EA"/>
			<stop  offset="0.4221" style="stop-color:#D7D1D9"/>
			<stop  offset="0.4864" style="stop-color:#C0B6C3"/>
			<stop  offset="0.5238" style="stop-color:#B0A4B3"/>
			<stop  offset="1" style="stop-color:#605373"/>
		</linearGradient>
		<path fill="url(#SVGID_9_)" d="M27.239,21.043c0,0.232,0.188,0.42,0.419,0.42c0.232,0,0.42-0.188,0.42-0.42
			c0-0.232-0.188-0.42-0.42-0.42C27.427,20.623,27.239,20.811,27.239,21.043z M27.328,21.043c0-0.183,0.147-0.331,0.33-0.331
			s0.331,0.148,0.331,0.331c0,0.183-0.148,0.33-0.331,0.33S27.328,21.226,27.328,21.043z"/>
	</g>
	<g>
		<path fill="#055E43" d="M14.968,19.427c-0.961,0-1.741,0.724-1.741,1.616c0-0.961,0.78-1.74,1.741-1.74
			c0.961,0,1.742,0.779,1.742,1.74C16.71,20.151,15.93,19.427,14.968,19.427z"/>
		<circle fill="#221F20" cx="14.969" cy="21.043" r="2.767"/>
		
			<radialGradient id="SVGID_10_" cx="-935.2305" cy="21.043" r="2.9919" gradientTransform="matrix(-1 0 0 1 -920.2637 0)" gradientUnits="userSpaceOnUse">
			<stop  offset="0.006" style="stop-color:#141213"/>
			<stop  offset="0.3164" style="stop-color:#131011"/>
			<stop  offset="0.4281" style="stop-color:#0D0C0C"/>
			<stop  offset="0.5076" style="stop-color:#060202"/>
			<stop  offset="0.5238" style="stop-color:#040000"/>
			<stop  offset="0.619" style="stop-color:#040000"/>
			<stop  offset="0.6914" style="stop-color:#22221C"/>
			<stop  offset="0.7564" style="stop-color:#3D392D"/>
			<stop  offset="0.7917" style="stop-color:#474334"/>
			<stop  offset="0.8457" style="stop-color:#514B3C"/>
			<stop  offset="0.8988" style="stop-color:#554F3F"/>
			<stop  offset="0.9172" style="stop-color:#514A3C"/>
			<stop  offset="0.9396" style="stop-color:#433E33"/>
			<stop  offset="0.964" style="stop-color:#2E2A25"/>
			<stop  offset="0.9897" style="stop-color:#131012"/>
			<stop  offset="1" style="stop-color:#070206"/>
		</radialGradient>
		<path fill="url(#SVGID_10_)" d="M11.976,21.043c0-0.086,0.006-0.171,0.013-0.256l0.528-0.02l-0.51-0.135
			c0.023-0.164,0.056-0.325,0.104-0.479l0.522,0.094l-0.469-0.242c0.058-0.154,0.126-0.304,0.208-0.445l0.487,0.204l-0.406-0.337
			c0.089-0.138,0.189-0.267,0.3-0.389l0.431,0.303l-0.325-0.418c0.116-0.116,0.243-0.22,0.376-0.315l0.356,0.389l-0.227-0.476
			c0.138-0.087,0.282-0.166,0.433-0.231l0.266,0.459l-0.119-0.514c0.152-0.055,0.31-0.1,0.473-0.131l0.161,0.503l-0.006-0.527
			c0.13-0.018,0.262-0.029,0.396-0.029c0.032,0,0.063,0.003,0.095,0.005l0.048,0.524l0.108-0.516
			c0.166,0.014,0.327,0.042,0.484,0.082l-0.066,0.523l0.218-0.484c0.158,0.049,0.309,0.113,0.455,0.186l-0.177,0.497l0.314-0.423
			c0.143,0.082,0.28,0.173,0.407,0.276l-0.281,0.449l0.399-0.346c0.12,0.11,0.234,0.229,0.336,0.356l-0.369,0.377l0.464-0.251
			c0.094,0.132,0.179,0.273,0.251,0.421l-0.442,0.289l0.51-0.147c0.064,0.149,0.113,0.306,0.151,0.466l-0.492,0.187l0.526-0.035
			c0.031,0.159,0.046,0.322,0.051,0.489l-0.521,0.076l0.521,0.08c-0.005,0.167-0.021,0.33-0.052,0.488l-0.528-0.038l0.491,0.19
			c-0.039,0.161-0.091,0.316-0.156,0.464l-0.507-0.15l0.44,0.292c-0.074,0.147-0.16,0.287-0.255,0.419l-0.461-0.255l0.368,0.38
			c-0.103,0.127-0.218,0.245-0.34,0.354l-0.395-0.348l0.276,0.45c-0.128,0.103-0.265,0.194-0.407,0.274l-0.313-0.426l0.173,0.498
			c-0.146,0.072-0.297,0.134-0.456,0.182l-0.214-0.484l0.062,0.524c-0.157,0.039-0.319,0.065-0.484,0.078l-0.105-0.517l-0.051,0.524
			c-0.025,0-0.049,0.003-0.074,0.003c-0.141,0-0.28-0.013-0.416-0.032l0.008-0.527l-0.163,0.503
			c-0.163-0.031-0.32-0.078-0.473-0.134l0.123-0.513l-0.269,0.456c-0.151-0.065-0.295-0.144-0.432-0.232l0.23-0.475l-0.359,0.386
			c-0.133-0.097-0.259-0.202-0.374-0.318l0.327-0.416l-0.433,0.3c-0.109-0.122-0.208-0.252-0.296-0.391l0.408-0.334l-0.489,0.2
			c-0.08-0.142-0.147-0.292-0.203-0.447l0.47-0.239l-0.522,0.091c-0.047-0.155-0.08-0.316-0.101-0.48l0.51-0.132l-0.526-0.023
			C11.981,21.2,11.976,21.123,11.976,21.043z"/>
		<ellipse fill="#B0A4B3" cx="14.969" cy="21.043" rx="1.741" ry="1.616"/>
		<path fill="#EDEBEE" d="M14.968,22.659c0.961,0,1.742-0.723,1.742-1.615c0,0.961-0.78,1.74-1.742,1.74
			c-0.961,0-1.741-0.779-1.741-1.74C13.228,21.936,14.007,22.659,14.968,22.659z"/>
		<ellipse fill="#055E43" cx="14.968" cy="21.083" rx="1.079" ry="1.119"/>
		<circle fill="#EDEBEE" cx="14.968" cy="21.043" r="1.079"/>
		
			<radialGradient id="SVGID_11_" cx="-935.2358" cy="23.8555" r="4.3818" gradientTransform="matrix(-1 0 0 0.9857 -920.2637 -0.4424)" gradientUnits="userSpaceOnUse">
			<stop  offset="0" style="stop-color:#BBB0BE"/>
			<stop  offset="0.2713" style="stop-color:#B9AFBC"/>
			<stop  offset="0.3689" style="stop-color:#B3A8B7"/>
			<stop  offset="0.3988" style="stop-color:#B0A4B3"/>
			<stop  offset="0.4191" style="stop-color:#ABA1AE"/>
			<stop  offset="0.4465" style="stop-color:#9D98A0"/>
			<stop  offset="0.478" style="stop-color:#868B8A"/>
			<stop  offset="0.5125" style="stop-color:#65796D"/>
			<stop  offset="0.5491" style="stop-color:#34674E"/>
			<stop  offset="0.5595" style="stop-color:#206247"/>
			<stop  offset="1" style="stop-color:#516F44"/>
		</radialGradient>
		<ellipse fill="url(#SVGID_11_)" cx="14.968" cy="21.014" rx="1.079" ry="1.05"/>
		
			<linearGradient id="SVGID_12_" gradientUnits="userSpaceOnUse" x1="-935.2319" y1="21.1865" x2="-935.2319" y2="19.8105" gradientTransform="matrix(-1 0 0 1 -920.2637 0)">
			<stop  offset="0.006" style="stop-color:#4B7258"/>
			<stop  offset="0.1049" style="stop-color:#456F51"/>
			<stop  offset="0.4906" style="stop-color:#31623C"/>
			<stop  offset="0.8026" style="stop-color:#235B32"/>
			<stop  offset="1" style="stop-color:#1D592E"/>
		</linearGradient>
		<path fill="url(#SVGID_12_)" d="M14.968,20.088c-0.574,0-1.042,0.438-1.076,0.988c-0.001-0.021-0.003-0.042-0.003-0.062
			c0-0.581,0.484-1.05,1.079-1.05c0.597,0,1.079,0.469,1.079,1.05c0,0.021-0.001,0.041-0.002,0.062
			C16.011,20.525,15.543,20.088,14.968,20.088z"/>
		<circle fill="#055E43" cx="14.969" cy="21.138" r="0.446"/>
		<circle fill="#B0A4B3" cx="14.969" cy="21.043" r="0.446"/>
		
			<linearGradient id="SVGID_13_" gradientUnits="userSpaceOnUse" x1="-935.2324" y1="20.6235" x2="-935.2324" y2="21.4639" gradientTransform="matrix(-1 0 0 1 -920.2637 0)">
			<stop  offset="0" style="stop-color:#FFFFFF"/>
			<stop  offset="0.1701" style="stop-color:#FDFDFE"/>
			<stop  offset="0.2695" style="stop-color:#F6F5F7"/>
			<stop  offset="0.3507" style="stop-color:#E9E6EA"/>
			<stop  offset="0.4221" style="stop-color:#D7D1D9"/>
			<stop  offset="0.4864" style="stop-color:#C0B6C3"/>
			<stop  offset="0.5238" style="stop-color:#B0A4B3"/>
			<stop  offset="1" style="stop-color:#605373"/>
		</linearGradient>
		<path fill="url(#SVGID_13_)" d="M14.549,21.043c0,0.232,0.188,0.42,0.419,0.42c0.232,0,0.42-0.188,0.42-0.42
			c0-0.232-0.188-0.42-0.42-0.42C14.737,20.623,14.549,20.811,14.549,21.043z M14.638,21.043c0-0.183,0.148-0.331,0.33-0.331
			c0.183,0,0.331,0.148,0.331,0.331c0,0.183-0.148,0.33-0.331,0.33C14.786,21.374,14.638,21.226,14.638,21.043z"/>
	</g>
	<g>
		<path fill="#055E43" d="M8.426,19.427c-0.961,0-1.74,0.724-1.74,1.616c0-0.961,0.779-1.74,1.74-1.74
			c0.962,0,1.741,0.779,1.741,1.74C10.167,20.151,9.388,19.427,8.426,19.427z"/>
		<circle fill="#221F20" cx="8.427" cy="21.043" r="2.767"/>
		
			<radialGradient id="SVGID_14_" cx="-928.6885" cy="21.043" r="2.9919" gradientTransform="matrix(-1 0 0 1 -920.2637 0)" gradientUnits="userSpaceOnUse">
			<stop  offset="0.006" style="stop-color:#141213"/>
			<stop  offset="0.3164" style="stop-color:#131011"/>
			<stop  offset="0.4281" style="stop-color:#0D0C0C"/>
			<stop  offset="0.5076" style="stop-color:#060202"/>
			<stop  offset="0.5238" style="stop-color:#040000"/>
			<stop  offset="0.619" style="stop-color:#040000"/>
			<stop  offset="0.6914" style="stop-color:#22221C"/>
			<stop  offset="0.7564" style="stop-color:#3D392D"/>
			<stop  offset="0.7917" style="stop-color:#474334"/>
			<stop  offset="0.8457" style="stop-color:#514B3C"/>
			<stop  offset="0.8988" style="stop-color:#554F3F"/>
			<stop  offset="0.9172" style="stop-color:#514A3C"/>
			<stop  offset="0.9396" style="stop-color:#433E33"/>
			<stop  offset="0.964" style="stop-color:#2E2A25"/>
			<stop  offset="0.9897" style="stop-color:#131012"/>
			<stop  offset="1" style="stop-color:#070206"/>
		</radialGradient>
		<path fill="url(#SVGID_14_)" d="M5.434,21.043c0-0.086,0.006-0.171,0.014-0.256l0.527-0.02l-0.51-0.135
			c0.023-0.164,0.056-0.325,0.104-0.479l0.522,0.094l-0.468-0.242c0.057-0.154,0.125-0.304,0.208-0.445l0.486,0.204l-0.405-0.337
			C6,19.288,6.101,19.159,6.21,19.037l0.43,0.303l-0.324-0.418c0.116-0.116,0.243-0.22,0.376-0.315l0.356,0.389L6.823,18.52
			c0.138-0.087,0.282-0.166,0.433-0.231l0.265,0.459l-0.118-0.514c0.152-0.055,0.31-0.1,0.473-0.131l0.16,0.503L8.03,18.08
			c0.13-0.018,0.262-0.029,0.396-0.029c0.032,0,0.063,0.003,0.095,0.005l0.048,0.524l0.107-0.516
			c0.167,0.014,0.327,0.042,0.484,0.082l-0.066,0.523l0.218-0.484c0.158,0.049,0.309,0.113,0.454,0.186L9.59,18.867l0.315-0.423
			c0.143,0.082,0.279,0.173,0.406,0.276l-0.281,0.449l0.398-0.346c0.122,0.11,0.235,0.229,0.337,0.356l-0.37,0.377l0.463-0.251
			c0.096,0.132,0.179,0.273,0.251,0.421l-0.441,0.289l0.51-0.147c0.063,0.149,0.113,0.306,0.151,0.466l-0.492,0.187l0.527-0.035
			c0.029,0.159,0.046,0.322,0.05,0.489l-0.522,0.076l0.521,0.08c-0.005,0.167-0.021,0.33-0.053,0.488l-0.528-0.038l0.492,0.19
			c-0.041,0.161-0.092,0.316-0.157,0.464l-0.507-0.15l0.44,0.292c-0.074,0.147-0.159,0.287-0.255,0.419l-0.461-0.255l0.367,0.38
			c-0.103,0.127-0.218,0.245-0.34,0.354l-0.396-0.348l0.276,0.45c-0.127,0.103-0.264,0.194-0.407,0.274l-0.312-0.426l0.173,0.498
			c-0.146,0.072-0.297,0.134-0.455,0.182l-0.214-0.484l0.062,0.524c-0.157,0.039-0.318,0.065-0.484,0.078l-0.105-0.517L8.5,24.033
			c-0.024,0-0.049,0.003-0.074,0.003c-0.141,0-0.28-0.013-0.417-0.032l0.009-0.527L7.855,23.98
			c-0.162-0.031-0.319-0.078-0.472-0.134l0.122-0.513l-0.268,0.456c-0.151-0.065-0.295-0.144-0.432-0.232l0.23-0.475l-0.359,0.386
			c-0.132-0.097-0.259-0.202-0.374-0.318l0.328-0.416l-0.433,0.3c-0.109-0.122-0.208-0.252-0.296-0.391l0.408-0.334l-0.49,0.2
			c-0.08-0.142-0.147-0.292-0.203-0.447l0.47-0.239l-0.522,0.091c-0.047-0.155-0.08-0.316-0.102-0.48l0.51-0.132l-0.526-0.023
			C5.439,21.2,5.434,21.123,5.434,21.043z"/>
		<ellipse fill="#B0A4B3" cx="8.427" cy="21.043" rx="1.741" ry="1.616"/>
		<path fill="#EDEBEE" d="M8.426,22.659c0.962,0,1.741-0.723,1.741-1.615c0,0.961-0.779,1.74-1.741,1.74
			c-0.961,0-1.74-0.779-1.74-1.74C6.686,21.936,7.465,22.659,8.426,22.659z"/>
		<ellipse fill="#055E43" cx="8.427" cy="21.083" rx="1.079" ry="1.119"/>
		<circle fill="#EDEBEE" cx="8.427" cy="21.043" r="1.079"/>
		
			<radialGradient id="SVGID_15_" cx="-928.6943" cy="23.8555" r="4.3818" gradientTransform="matrix(-1 0 0 0.9857 -920.2637 -0.4424)" gradientUnits="userSpaceOnUse">
			<stop  offset="0" style="stop-color:#BBB0BE"/>
			<stop  offset="0.2713" style="stop-color:#B9AFBC"/>
			<stop  offset="0.3689" style="stop-color:#B3A8B7"/>
			<stop  offset="0.3988" style="stop-color:#B0A4B3"/>
			<stop  offset="0.4191" style="stop-color:#ABA1AE"/>
			<stop  offset="0.4465" style="stop-color:#9D98A0"/>
			<stop  offset="0.478" style="stop-color:#868B8A"/>
			<stop  offset="0.5125" style="stop-color:#65796D"/>
			<stop  offset="0.5491" style="stop-color:#34674E"/>
			<stop  offset="0.5595" style="stop-color:#206247"/>
			<stop  offset="1" style="stop-color:#516F44"/>
		</radialGradient>
		<ellipse fill="url(#SVGID_15_)" cx="8.427" cy="21.014" rx="1.079" ry="1.05"/>
		
			<linearGradient id="SVGID_16_" gradientUnits="userSpaceOnUse" x1="-928.6899" y1="21.1865" x2="-928.6899" y2="19.8105" gradientTransform="matrix(-1 0 0 1 -920.2637 0)">
			<stop  offset="0.006" style="stop-color:#4B7258"/>
			<stop  offset="0.1049" style="stop-color:#456F51"/>
			<stop  offset="0.4906" style="stop-color:#31623C"/>
			<stop  offset="0.8026" style="stop-color:#235B32"/>
			<stop  offset="1" style="stop-color:#1D592E"/>
		</linearGradient>
		<path fill="url(#SVGID_16_)" d="M8.426,20.088c-0.574,0-1.042,0.438-1.075,0.988c-0.001-0.021-0.003-0.042-0.003-0.062
			c0-0.581,0.483-1.05,1.079-1.05c0.597,0,1.079,0.469,1.079,1.05c0,0.021-0.001,0.041-0.003,0.062
			C9.469,20.525,9.001,20.088,8.426,20.088z"/>
		<circle fill="#055E43" cx="8.427" cy="21.138" r="0.446"/>
		<circle fill="#B0A4B3" cx="8.427" cy="21.043" r="0.446"/>
		
			<linearGradient id="SVGID_17_" gradientUnits="userSpaceOnUse" x1="-928.6909" y1="20.6235" x2="-928.6909" y2="21.4639" gradientTransform="matrix(-1 0 0 1 -920.2637 0)">
			<stop  offset="0" style="stop-color:#FFFFFF"/>
			<stop  offset="0.1701" style="stop-color:#FDFDFE"/>
			<stop  offset="0.2695" style="stop-color:#F6F5F7"/>
			<stop  offset="0.3507" style="stop-color:#E9E6EA"/>
			<stop  offset="0.4221" style="stop-color:#D7D1D9"/>
			<stop  offset="0.4864" style="stop-color:#C0B6C3"/>
			<stop  offset="0.5238" style="stop-color:#B0A4B3"/>
			<stop  offset="1" style="stop-color:#605373"/>
		</linearGradient>
		<path fill="url(#SVGID_17_)" d="M8.007,21.043c0,0.232,0.188,0.42,0.419,0.42c0.232,0,0.42-0.188,0.42-0.42
			c0-0.232-0.188-0.42-0.42-0.42C8.195,20.623,8.007,20.811,8.007,21.043z M8.096,21.043c0-0.183,0.148-0.331,0.33-0.331
			c0.183,0,0.332,0.148,0.332,0.331c0,0.183-0.149,0.33-0.332,0.33C8.244,21.374,8.096,21.226,8.096,21.043z"/>
	</g>
	<path fill="#908298" d="M6.19,10.275L3.939,7.188c0.028-0.486,0.068-0.983,0.126-1.493h1.038C5.104,5.696,5.122,7.752,6.19,10.275z
		"/>
	<path fill="#B0A4B3" d="M5.256,17.181h7.342C4.98,13.298,4.914,5.599,4.914,5.599H3.875C3.095,12.419,5.256,17.181,5.256,17.181z"
		/>
	<path fill="#B0A4B3" d="M0.269,9.894V5.637h4.364v4.257H0.269L0.269,9.894z M4.208,9.439V6.091H0.694v3.349H4.208L4.208,9.439z"/>
	<rect x="0.58" y="6.04" fill="none" width="3.742" height="3.446"/>
	<rect x="0.69" y="9.444" fill="#DDD8DE" width="3.522" height="0.083"/>
	<rect x="0.324" y="5.669" fill="#DDD8DE" width="4.567" height="0.065"/>
	<rect x="0.58" y="5.952" fill="#897B92" width="3.742" height="0.131"/>
	<rect x="0.269" y="9.763" fill="#897B92" width="4.333" height="0.131"/>
	<g>
		<rect x="5.54" y="15.876" fill="#897B92" width="4.038" height="0.523"/>
		<rect x="4.456" y="14.173" fill="#897B92" width="3.662" height="0.523"/>
		<path fill="#897B92" d="M6.138,10.765v0.523h-2.29c-0.018-0.171-0.035-0.346-0.05-0.523H6.138z"/>
		<path fill="#897B92" d="M6.797,12.469v0.523h-2.71c-0.029-0.17-0.058-0.345-0.085-0.523H6.797z"/>
	</g>
	<path fill="#B0A4B3" d="M9.578,15.764H5.54v0.523h4.038V15.764z M8.118,14.061H4.456v0.523h3.662V14.061z M6.797,12.357H3.727
		v0.522h3.071V12.357z M3.067,10.653v0.523h3.071v-0.523H3.067z"/>
	<g>
		<rect x="5.54" y="15.764" fill="#FFFFFF" width="4.038" height="0.068"/>
		<rect x="4.456" y="14.061" fill="#FFFFFF" width="3.662" height="0.068"/>
		<rect x="3.727" y="12.357" fill="#FFFFFF" width="3.071" height="0.068"/>
		<rect x="3.067" y="10.653" fill="#FFFFFF" width="3.071" height="0.068"/>
	</g>
	<g>
		<path fill="#92849A" d="M6.091,17.307H5.784C5.117,15.858,3.52,11.79,3.774,6.456l0.285,0.174
			C3.802,12.041,5.469,16.021,6.091,17.307z"/>
	</g>
	<g>
		<g>
			<path fill="#B0A4B3" d="M6.307,17.307H6c-0.667-1.646-2.268-6.2-2.148-11.641l0.285,0.007
				C4.016,11.201,5.687,15.803,6.307,17.307z"/>
		</g>
		<g>
			<g>
				<path fill="#DDD8DE" d="M6.308,17.307H6.205c-0.647-1.534-2.332-6.129-2.21-11.641L4.09,5.668
					C3.968,11.212,5.678,15.825,6.308,17.307z"/>
			</g>
		</g>
	</g>
	<polygon fill="#6D5F7C" points="24.94,17.307 24.719,17.896 18.521,17.896 18.627,21.34 18.521,21.34 17.356,17.896 6.201,17.896 
		4.891,21.34 4.769,21.34 4.891,17.307 	"/>
	<polygon fill="#DB4C31" points="24.836,17.181 24.836,17.789 18.627,17.789 18.627,21.34 17.443,17.789 6.099,17.789 4.769,21.34 
		4.769,17.181 	"/>
	<rect x="4.769" y="17.181" fill="#DDD8DE" width="20.067" height="0.125"/>
	<g>
		<path fill="#CD472D" d="M24.618,18.357c0.13-1.072,0.802-6.613,1.143-8.37c0.123-0.633,0.384-0.68,0.729-0.675
			c1.535,0.021,5.323,0.168,5.323,0.168l2.293,5.216c0,0,0.34,1.557,0.464,3.243h-0.482v0.966h0.522
			c0.01,0.347,0.007,0.677-0.016,0.972c-0.029,0.369-1.105,0.79-1.438,0.759c-0.561-0.051-2.104,0.156-2.27-0.236
			c-0.378-0.89-1.069-2.608-2.079-2.608c-0.602,0-1.841,0.004-2.783,0c-0.034,0.019-0.466,0.265-0.771,0.687
			c-0.437,0.607-0.755,1.761-0.834,2.378l-0.517,0.188C23.848,20.678,24.375,18.773,24.618,18.357z"/>
		<path fill="#897B92" d="M25.65,10.622h5.259v0.213h-5.294C25.627,10.762,25.638,10.69,25.65,10.622z"/>
		<path fill="#897B92" d="M32.88,19.061v-5.294h0.114v5.323C32.956,19.078,32.916,19.073,32.88,19.061z"/>
		<path fill="#897B92" d="M27.891,16.909v-3.142h0.117v3.158C27.968,16.918,27.929,16.916,27.891,16.909z"/>
		
			<linearGradient id="SVGID_18_" gradientUnits="userSpaceOnUse" x1="-952.7217" y1="10.5947" x2="-948.8086" y2="13.703" gradientTransform="matrix(-1 0 0 1 -920.2637 0)">
			<stop  offset="0" style="stop-color:#FFFFFF"/>
			<stop  offset="0.5169" style="stop-color:#A09083"/>
			<stop  offset="0.5225" style="stop-color:#685343"/>
			<stop  offset="0.7753" style="stop-color:#4D382A"/>
			<stop  offset="0.9888" style="stop-color:#3B281C"/>
		</linearGradient>
		<polygon fill="url(#SVGID_18_)" points="27.891,13.767 32.998,13.767 31.705,10.622 27.891,10.622 		"/>
		<polygon fill="#382519" points="31.705,10.622 31.749,10.728 28.058,10.728 28.058,13.767 27.891,13.767 27.891,10.622 		"/>
		<path fill="#897B92" d="M32.994,20.629c-0.059-0.001-0.123-0.001-0.192,0v-1.375h-1.736v-0.193h1.929V20.629z"/>
		<rect x="32.915" y="17.947" fill="#897B92" width="1.173" height="0.193"/>
		<rect x="32.994" y="18.915" fill="#DDD8DE" width="1.621" height="0.146"/>
		<path fill="#DDD8DE" d="M24.807,16.828h5.308l1.062,2.931c0,0-1.093-2.662-1.299-2.662c-0.181,0-4.122,0-5.104,0
			C24.784,17.011,24.794,16.922,24.807,16.828z"/>
		<rect x="27.891" y="13.686" fill="#FFFFFF" width="5.104" height="0.081"/>
		<path fill="#FFFFFF" d="M26.339,9.396c1.426,0.001,5.47,0.166,5.47,0.166L31.82,9.59l-5.87,0.015
			C25.95,9.604,26.121,9.396,26.339,9.396z"/>
		<g>
			
				<linearGradient id="SVGID_19_" gradientUnits="userSpaceOnUse" x1="-949.1729" y1="15.0811" x2="-949.1729" y2="14.5825" gradientTransform="matrix(-1 0 0 1 -920.2637 0)">
				<stop  offset="0" style="stop-color:#C8C0CB"/>
				<stop  offset="0.2241" style="stop-color:#C6BDC8"/>
				<stop  offset="0.3825" style="stop-color:#BEB4C0"/>
				<stop  offset="0.5205" style="stop-color:#B0A4B4"/>
				<stop  offset="0.5238" style="stop-color:#B0A4B3"/>
				<stop  offset="0.6645" style="stop-color:#8E7F96"/>
				<stop  offset="0.7996" style="stop-color:#756682"/>
				<stop  offset="0.9159" style="stop-color:#665877"/>
				<stop  offset="1" style="stop-color:#605373"/>
			</linearGradient>
			<path fill="url(#SVGID_19_)" d="M28.198,14.995c0,0.048,0.039,0.086,0.086,0.086h1.249c0.048,0,0.088-0.039,0.088-0.086v-0.326
				c0-0.048-0.04-0.086-0.088-0.086h-1.249c-0.047,0-0.086,0.038-0.086,0.086V14.995z"/>
			<rect x="28.298" y="14.735" fill="#1C2A53" width="1.224" height="0.195"/>
			<rect x="28.258" y="15.047" fill="#FFFFFF" width="1.275" height="0.03"/>
			<rect x="28.298" y="14.735" fill="#BFB6C2" width="1.224" height="0.029"/>
		</g>
	</g>
	<path fill="#DDD8DE" d="M18.729,18.283v2.967h5.079v-2.967h-0.792v-0.754h-0.247v0.754h-3.115v-0.754h-0.248v0.754H18.729z
		 M21.116,19.472h-1.463v-0.665h1.463V19.472z M23.475,19.472h-0.459v-0.665h0.459V19.472z M23.475,20.709h-0.459v-0.665h0.459
		V20.709z M21.372,20.044h1.396v0.665h-1.396V20.044z M21.372,18.807h1.396v0.665h-1.396V18.807z M20.384,20.709v-0.665h0.732v0.665
		H20.384z M20.069,20.709h-0.416v-0.665h0.416V20.709z M19.015,20.044h0.391v0.665h-0.391V20.044z M19.015,18.807h0.391v0.665
		h-0.391V18.807z"/>
	<path fill="#6D5F7C" d="M18.729,18.409v2.967h5.079v-2.967h-0.792v-0.754h-0.247v0.754h-3.115v-0.754h-0.248v0.754H18.729z
		 M21.116,19.599h-1.463v-0.665h1.463V19.599z M23.475,19.599h-0.459v-0.665h0.459V19.599z M23.475,20.836h-0.459v-0.665h0.459
		V20.836z M21.372,20.171h1.396v0.665h-1.396V20.171z M21.372,18.934h1.396v0.665h-1.396V18.934z M20.384,20.836v-0.665h0.732v0.665
		H20.384z M20.069,20.836h-0.416v-0.665h0.416V20.836z M19.015,20.171h0.391v0.665h-0.391V20.171z M19.015,18.934h0.391v0.665
		h-0.391V18.934z"/>
	<path fill="#B0A4B3" d="M18.729,18.346v2.967h5.079v-2.967h-0.792v-0.755h-0.247v0.755h-3.115v-0.755h-0.248v0.755H18.729z
		 M21.116,19.535h-1.463v-0.665h1.463V19.535z M23.475,19.535h-0.459v-0.665h0.459V19.535z M23.475,20.772h-0.459v-0.665h0.459
		V20.772z M21.372,20.108h1.396v0.665h-1.396V20.108z M21.372,18.871h1.396v0.665h-1.396V18.871z M20.384,20.772v-0.665h0.732v0.665
		H20.384z M20.069,20.772h-0.416v-0.665h0.416V20.772z M19.015,20.108h0.391v0.665h-0.391V20.108z M19.015,18.871h0.391v0.665
		h-0.391V18.871z"/>
</g>
</svg>
