<?xml version="1.0" standalone="no"?><!DOCTYPE svg PUBLIC "-//W3C//DTD SVG 1.1//EN" "http://www.w3.org/Graphics/SVG/1.1/DTD/svg11.dtd"><svg t="1522652582868" class="icon" style="" viewBox="0 0 1024 1024" version="1.1" xmlns="http://www.w3.org/2000/svg" p-id="4457" xmlns:xlink="http://www.w3.org/1999/xlink" width="200" height="200"><defs><style type="text/css"></style></defs><path d="M786.57536 340.95104c0.88064-0.88064 1.65888-1.82272 2.3552-2.78528 12.92288-14.5408 20.00896-33.0752 20.00896-52.5312 0-43.95008-36.18816-79.72864-80.6912-79.72864l-453.0176 0c-44.48256 0-80.6912 35.75808-80.6912 79.72864 0 18.98496 6.73792 37.04832 19.06688 51.42528 0.90112 1.4336 1.96608 2.80576 3.21536 4.05504l178.9952 176.8448 0 185.5488c0 6.77888 3.05152 12.84096 7.8848 16.95744 0.28672 0.26624 0.53248 0.53248 0.8192 0.77824l160.84992 134.8608c4.15744 3.4816 9.23648 5.20192 14.31552 5.20192 6.26688 0 12.51328-2.62144 16.896-7.72096 4.21888-4.89472 5.8368-11.10016 5.03808-17.01888L601.62048 523.6736 786.57536 340.95104 786.57536 340.95104zM251.71968 312.25856c-0.6144-0.83968-1.26976-1.67936-2.02752-2.4576-6.32832-6.53312-9.80992-15.09376-9.80992-24.14592 0-19.2512 15.85152-34.93888 35.34848-34.93888l453.0176 0c19.49696 0 35.36896 15.6672 35.36896 34.93888 0 8.99072-3.44064 17.53088-9.70752 24.04352-0.45056 0.47104-0.86016 0.94208-1.24928 1.4336l-189.72672 187.43296c-4.25984 4.1984-6.63552 9.89184-6.63552 15.83104l0 276.70528-115.13856-96.54272 0-185.87648c0-5.9392-2.39616-11.63264-6.63552-15.83104L251.71968 312.25856 251.71968 312.25856z" p-id="4458" fill="#4472C4"></path></svg>