<?xml version="1.0" standalone="no"?><!DOCTYPE svg PUBLIC "-//W3C//DTD SVG 1.1//EN" "http://www.w3.org/Graphics/SVG/1.1/DTD/svg11.dtd"><svg t="1522660304534" class="icon" style="" viewBox="0 0 1024 1024" version="1.1" xmlns="http://www.w3.org/2000/svg" p-id="5244" xmlns:xlink="http://www.w3.org/1999/xlink" width="200" height="200"><defs><style type="text/css"></style></defs><path d="M688.500364 721.268364l32.907636-32.954182 158.952727 158.952727-32.861091 32.907636z" fill="#1B37A8" p-id="5245"></path><path d="M479.418182 821.527273a342.574545 342.574545 0 1 1 342.574545-342.574546 342.574545 342.574545 0 0 1-342.574545 342.574546z m0-638.138182a296.029091 296.029091 0 1 0 296.029091 296.029091 296.029091 296.029091 0 0 0-296.029091-296.029091z" fill="#1B37A8" p-id="5246"></path><path d="M305.338182 478.952727h-46.545455a221.090909 221.090909 0 0 1 220.625455-220.625454v46.545454a174.545455 174.545455 0 0 0-174.08 174.08z" fill="#FFB718" p-id="5247"></path></svg>