<?xml version="1.0" encoding="utf-8"?>
<!-- Generator: Adobe Illustrator 16.0.0, SVG Export Plug-In . SVG Version: 6.00 Build 0)  -->
<!DOCTYPE svg PUBLIC "-//W3C//DTD SVG 1.1//EN" "http://www.w3.org/Graphics/SVG/1.1/DTD/svg11.dtd">
<svg version="1.1" id="图层_1" xmlns="http://www.w3.org/2000/svg" xmlns:xlink="http://www.w3.org/1999/xlink" x="0px" y="0px"
	 width="23px" height="23px" viewBox="0 0 23 23" enable-background="new 0 0 23 23" xml:space="preserve">
<g>
	<g>
		<path fill="#EB5F1F" d="M12.195,5.476c3.329,0,6.028,2.698,6.028,6.027c0,3.328-2.699,6.026-6.028,6.026
			c-3.328,0-6.027-2.698-6.027-6.026C6.168,8.171,8.867,5.476,12.195,5.476L12.195,5.476z M5.085,18.611
			c0.229,0.229,0.607,0.229,0.839,0l1.094-1.095c0.229-0.229,0.229-0.606,0-0.839c-0.23-0.229-0.607-0.231-0.84,0l-1.093,1.094
			C4.855,18.003,4.855,18.381,5.085,18.611L5.085,18.611z M17.376,6.323c0.229,0.229,0.607,0.229,0.84,0l1.093-1.095
			c0.23-0.229,0.23-0.607,0-0.839c-0.229-0.229-0.606-0.229-0.838,0l-1.095,1.094C17.144,5.712,17.144,6.09,17.376,6.323
			L17.376,6.323z M5.085,4.389c-0.229,0.23-0.229,0.607,0,0.839l1.093,1.095c0.23,0.229,0.608,0.229,0.84,0
			c0.229-0.23,0.229-0.607,0-0.84L5.924,4.389C5.692,4.16,5.314,4.16,5.085,4.389L5.085,4.389z M17.376,16.681
			c-0.229,0.229-0.229,0.607,0,0.84l1.095,1.093c0.229,0.23,0.606,0.23,0.838,0c0.23-0.229,0.23-0.607,0-0.839l-1.093-1.094
			C17.983,16.448,17.604,16.448,17.376,16.681L17.376,16.681z M2.139,11.5c0-0.326,0.267-0.593,0.592-0.593h1.546
			c0.326,0,0.593,0.267,0.593,0.593c0,0.326-0.267,0.593-0.593,0.593H2.731C2.406,12.095,2.139,11.826,2.139,11.5L2.139,11.5z
			 M19.519,11.5c0-0.326,0.268-0.593,0.594-0.593h1.546c0.324,0,0.592,0.267,0.592,0.593c0,0.326-0.268,0.593-0.592,0.593h-1.546
			C19.789,12.095,19.519,11.826,19.519,11.5L19.519,11.5z M12.195,1.443c0.327,0,0.593,0.267,0.593,0.593v1.546
			c0,0.326-0.266,0.592-0.593,0.592c-0.324,0-0.592-0.266-0.592-0.592V2.036C11.604,1.71,11.871,1.443,12.195,1.443L12.195,1.443z
			 M12.195,18.826c0.327,0,0.593,0.267,0.593,0.592v1.546c0,0.326-0.266,0.593-0.593,0.593c-0.324,0-0.592-0.267-0.592-0.593v-1.546
			C11.604,19.093,11.871,18.826,12.195,18.826L12.195,18.826z M12.195,18.826"/>
	</g>
</g>
</svg>
