<?xml version="1.0" standalone="no"?><!DOCTYPE svg PUBLIC "-//W3C//DTD SVG 1.1//EN" "http://www.w3.org/Graphics/SVG/1.1/DTD/svg11.dtd"><svg t="1522495967731" class="icon" style="" viewBox="0 0 1024 1024" version="1.1" xmlns="http://www.w3.org/2000/svg" p-id="1460" xmlns:xlink="http://www.w3.org/1999/xlink" width="20" height="20"><defs><style type="text/css"></style></defs><path d="M670.237931 555.696198c-4.16281-52.713572 173.403329-51.326992 173.403329-51.326992s-137.857764-30.131251-202.535833 23.584138c-81.845053 67.973114 41.61684 110.977557 69.361741 138.722458 27.743878 27.743878 30.519084 76.29771-91.557252 79.07087-122.07429 2.775206-208.083176-5.547343-208.083176-5.547343s-24.222681 100.845803-45.777603 153.980977c0 0 234.43945 6.935969 328.770885-15.258519 94.332459-22.195511 194.21226-97.106642 151.20884-183.113481C802.025443 609.798397 674.399717 608.411817 670.237931 555.696198L670.237931 555.696198z" p-id="1461" data-spm-anchor-id="a313x.7781069.0.i1" class="selected" fill="#4472C4"></path><path d="M326.20648 163.112961c-128.712477 0-233.053893 104.340393-233.053893 233.053893 0 128.712477 185.887664 230.277664 233.053893 487.023142 66.586534-252.583692 233.053893-358.311689 233.053893-487.023142C559.261397 267.454378 454.917934 163.112961 326.20648 163.112961L326.20648 163.112961zM326.20648 519.628748c-68.186985 0-123.462916-55.275931-123.462916-123.461893 0-68.186985 55.275931-123.462916 123.462916-123.462916s123.461893 55.275931 123.461893 123.462916C449.669396 464.352817 394.393465 519.628748 326.20648 519.628748L326.20648 519.628748z" p-id="1462" data-spm-anchor-id="a313x.7781069.0.i4" class="selected" fill="#4472C4"></path><path d="M917.870868 266.122033c0-56.889685-46.118364-103.009072-103.008049-103.009072-56.889685 0-103.009072 46.118364-103.009072 103.009072s82.161255 101.782128 103.009072 215.261669C844.294129 369.743042 917.870868 323.011718 917.870868 266.122033L917.870868 266.122033zM760.292969 266.122033c0-30.137391 24.431435-54.56985 54.56985-54.56985 30.138414 0 54.570873 24.431435 54.570873 54.56985 0 30.138414-24.431435 54.56985-54.570873 54.56985C784.724405 320.69086 760.292969 296.260447 760.292969 266.122033L760.292969 266.122033z" p-id="1463" data-spm-anchor-id="a313x.7781069.0.i5" class="selected" fill="#4472C4"></path></svg>